<svg width="50" height="50" viewBox="0 0 50 50" fill="none" xmlns="http://www.w3.org/2000/svg">
<path d="M29.1667 4.16667C29.1667 3.0616 28.7277 2.00179 27.9463 1.22039C27.1649 0.438987 26.1051 0 25 0C23.8949 0 22.8351 0.438987 22.0537 1.22039C21.2723 2.00179 20.8333 3.0616 20.8333 4.16667V20.8333H4.16667C3.0616 20.8333 2.00179 21.2723 1.22039 22.0537C0.438987 22.8351 0 23.8949 0 25C0 26.1051 0.438987 27.1649 1.22039 27.9463C2.00179 28.7277 3.0616 29.1667 4.16667 29.1667H20.8333V45.8333C20.8333 46.9384 21.2723 47.9982 22.0537 48.7796C22.8351 49.561 23.8949 50 25 50C26.1051 50 27.1649 49.561 27.9463 48.7796C28.7277 47.9982 29.1667 46.9384 29.1667 45.8333V29.1667H45.8333C46.9384 29.1667 47.9982 28.7277 48.7796 27.9463C49.561 27.1649 50 26.1051 50 25C50 23.8949 49.561 22.8351 48.7796 22.0537C47.9982 21.2723 46.9384 20.8333 45.8333 20.8333H29.1667V4.16667Z" fill="white"/>
</svg>
